HIERARCHY
ROOT Hips
{
  OFFSET 2.26061 22.2878 23.7974
  CHANNELS 6 Xposition Yposition Zposition Zrotation Xrotation Yrotation
  JOINT LeftUpLeg
  {
    OFFSET 8.64259 1.95398 -2.38835
    CHANNELS 3 Zrotation Xrotation Yrotation
    JOINT LeftLeg
    {
      OFFSET 43.7702 0 0
      CHANNELS 3 Zrotation Xrotation Yrotation
      JOINT LeftFoot
      {
        OFFSET 40.6238 0 0
        CHANNELS 3 Zrotation Xrotation Yrotation
        JOINT LeftToeBase
        {
          OFFSET 12.7242 0 0
          CHANNELS 3 Zrotation Xrotation Yrotation
          End Site
          {
            OFFSET 0 0 0
          }
        }
      }
    }
  }
  JOINT RightUpLeg
  {
    OFFSET -8.2249 1.95398 -2.59336
    CHANNELS 3 Zrotation Xrotation Yrotation
    JOINT RightLeg
    {
      OFFSET 43.5653 0 0
      CHANNELS 3 Zrotation Xrotation Yrotation
      JOINT RightFoot
      {
        OFFSET 40.6238 0 0
        CHANNELS 3 Zrotation Xrotation Yrotation
        JOINT RightToeBase
        {
          OFFSET 12.7242 0 0
          CHANNELS 3 Zrotation Xrotation Yrotation
          End Site
          {
            OFFSET 0 0 0
          }
        }
      }
    }
  }
  JOINT Spine
  {
    OFFSET 0.165834 0.87714 6.61349
    CHANNELS 3 Zrotation Xrotation Yrotation
    JOINT Spine1
    {
      OFFSET 7.38963 1.71661e-005 0
      CHANNELS 3 Zrotation Xrotation Yrotation
      JOINT Spine2
      {
        OFFSET 11.9445 1.14441e-005 0
        CHANNELS 3 Zrotation Xrotation Yrotation
        JOINT Spine3
        {
          OFFSET 14.7254 4.19617e-005 0
          CHANNELS 3 Zrotation Xrotation Yrotation
          JOINT Spine4
          {
            OFFSET 10.9679 0 0
            CHANNELS 3 Zrotation Xrotation Yrotation
            JOINT RightShoulder
            {
              OFFSET 2.46616 -1.6653 3.69651
              CHANNELS 3 Zrotation Xrotation Yrotation
              JOINT RightArm
              {
                OFFSET 13.0012 0 0
                CHANNELS 3 Zrotation Xrotation Yrotation
                JOINT RightForeArm
                {
                  OFFSET 28.7848 1.52588e-005 0
                  CHANNELS 3 Zrotation Xrotation Yrotation
                  JOINT RightHand
                  {
                    OFFSET 26.5688 1.52588e-005 0
                    CHANNELS 3 Zrotation Xrotation Yrotation
                    End Site
                    {
                      OFFSET 0 0 0
                    }
                  }
                }
              }
            }
            JOINT LeftShoulder
            {
              OFFSET 2.38034 -1.29275 -3.7523
              CHANNELS 3 Zrotation Xrotation Yrotation
              JOINT LeftArm
              {
                OFFSET 16.3182 6.10351e-005 0
                CHANNELS 3 Zrotation Xrotation Yrotation
                JOINT LeftForeArm
                {
                  OFFSET 27.0901 0 0
                  CHANNELS 3 Zrotation Xrotation Yrotation
                  JOINT LeftHand
                  {
                    OFFSET 24.5451 1.52588e-005 0
                    CHANNELS 3 Zrotation Xrotation Yrotation
                    End Site
                    {
                      OFFSET 0 0 0
                    }
                  }
                }
              }
            }
            JOINT Neck
            {
              OFFSET 5.0226 -0.0266342 0
              CHANNELS 3 Zrotation Xrotation Yrotation
              JOINT Head
              {
                OFFSET 6.69363 2.86102e-005 0
                CHANNELS 3 Zrotation Xrotation Yrotation
                End Site
                {
                  OFFSET 0 0 0
                }
              }
            }
          }
        }
      }
    }
  }
}
MOTION
Frames:	6
Frame Time:	0.0416667
-2.63466 96.4303 -23.0391 -91.8829 -60.7583 -89.9907 -173.021 8.09223 90.5409 -26.5587 12.6644 1.16065 66.484 6.33671 5.04561 35.0562 4.8661 5.99845 178.327 13.249 85.3588 -40.0626 -5.97769 -8.26847 68.9878 -5.43832 -2.87601 38.1446 0.320778 -8.47606 0.200346 7.71572 -89.896 11.4425 0.447183 0.162544 -0.228357 0.453911 0.142697 -22.7639 0.377664 0.289433 -2.7513 0.377652 0.289423 95.3284 -49.7185 -92.6516 27.394 -12.2638 21.0303 -15.4891 -20.7306 -62.126 -11.6986 -0.877822 1.99046 -96.7631 -50.7625 68.9596 -21.2132 12.6635 16.278 17.3783 2.62598 -72.1798 13.6114 0.649101 0.894369 3.8379 20.7155 -6.85989 2.63212 22.3008 17.1468 
0.139182 96.8067 -19.068 -88.5318 -69.2032 -85.8138 -174.446 7.83673 89.3793 -25.7353 18.7354 1.8962 66.7823 6.64411 4.48006 33.8576 3.76584 7.66604 179.616 15.4367 88.8881 -42.3896 -6.19882 -7.29046 65.958 -4.02636 -2.23648 40.2862 0.238175 -9.30093 0.0322626 7.68427 -89.7812 11.5049 0.166556 0.418962 -0.16615 0.184829 0.411221 -22.7008 0.0329364 0.449643 -2.68813 0.0329274 0.44964 95.507 -49.9887 -92.338 28.1062 -12.2128 21.4454 -17.0303 -21.9682 -62.1463 -8.74732 -0.796403 2.14813 -96.7514 -49.9138 68.706 -18.9579 10.0163 16.9866 16.8795 3.74702 -69.1162 12.7975 0.763844 2.03957 4.99254 16.7085 -7.52449 5.27878 18.6495 13.9684 
3.16338 97.2662 -14.9398 -78.8128 -78.4658 -74.3927 -174.184 7.44765 89.3886 -24.7178 22.6701 1.47265 66.489 6.21966 5.06409 32.6991 2.67495 8.57267 179.881 17.4841 92.4704 -41.0455 -6.92469 -5.49363 62.2638 -2.52021 -1.44394 38.8154 0.285285 -9.2626 -0.223779 7.71596 -89.8521 11.4423 -0.376113 0.332666 -0.228606 -0.36111 0.348888 -22.764 -0.458712 0.204255 -2.75138 -0.458706 0.204244 95.7763 -50.3632 -91.874 28.2625 -12.6089 22.0862 -15.3764 -22.4053 -60.7691 -7.37191 -0.736008 2.0867 -97.1281 -49.8263 68.1254 -15.7146 8.8687 16.3724 16.0725 3.36996 -68.9153 12.5041 0.727894 1.89035 5.54542 12.4985 -7.05355 8.36724 14.4767 10.3919 
6.39343 96.9227 -10.7953 -28.2766 -84.3621 -23.8629 -174.305 7.21769 87.3791 -23.3395 18.6958 0.446205 66.18 6.08387 4.74653 34.9227 4.67983 11.8246 179.361 22.0239 93.6518 -39.6473 -6.75821 -4.04418 60.5334 -1.57467 -0.889146 40.6387 0.248721 -8.68484 -0.45402 7.65459 -89.7759 11.5665 -0.798241 0.528894 -0.104374 -0.774193 0.563511 -22.6412 -0.920293 0.26453 -2.6286 -0.920294 0.264525 96.0408 -51.1444 -91.3734 27.9491 -13.2267 23.386 -13.8338 -22.4038 -59.5517 -6.76219 -0.686504 1.7941 -97.5121 -49.5645 67.4757 -12.6308 8.03007 14.0297 16.4446 2.94614 -70.2388 12.8464 0.666197 1.28934 5.2447 8.29175 -6.54344 11.6386 10.1746 7.48815 
9.8304 95.6633 -7.15413 39.1501 -80.6148 43.7567 -174.186 7.94768 85.4213 -25.84 11.2259 -0.504571 67.5731 7.74877 3.74345 38.445 8.12329 13.5495 178.189 27.6161 94.3043 -39.7231 -5.382 -2.41095 63.4712 -2.2476 -1.26967 40.4812 0.21456 -9.71596 -0.642428 7.67504 -89.8429 11.5266 -1.20454 0.436817 -0.143846 -1.18414 0.489413 -22.6834 -1.28012 0.0545546 -2.67078 -1.28012 0.0545598 96.623 -51.2502 -90.4718 27.2661 -13.7128 24.6592 -12.3981 -23.2229 -57.4922 -6.51232 -0.60859 0.733398 -98.3821 -50.4285 66.4999 -8.99411 6.8915 9.69643 17.1281 2.10371 -73.1052 13.5629 0.69075 1.20416 5.43605 4.15598 -4.46412 14.0165 5.47639 4.39814 
12.9023 93.5436 -3.94447 57.9652 -73.2054 62.9766 -173.295 9.70489 84.3068 -31.7175 10.1899 -1.52758 67.5781 9.50033 8.55835 43.1199 12.1468 8.64373 177.369 34.4962 94.7133 -41.3735 -3.58033 -1.19157 64.5865 -2.43029 -1.35492 41.1125 0.176042 -10.1344 -0.734704 7.86812 -89.9532 11.1398 -1.44054 0.233523 -0.530334 -1.42887 0.296702 -23.0719 -1.44411 -0.210303 -3.05919 -1.44412 -0.210319 96.5407 -51.9798 -90.5193 26.0592 -13.6362 25.8586 -11.2878 -23.5001 -55.3179 -5.36426 -0.575974 0.700141 -100.107 -51.3804 64.3548 -5.05399 4.24908 4.28766 18.3436 0.395478 -78.4401 14.2612 0.530917 -0.120707 7.1457 -0.124252 -4.48952 15.2179 1.29582 3.68773 
